<mxfile host="65bd71144e">
    <diagram id="YO0gXk-6RBsI58kyFp5I" name="Page-1">
        <mxGraphModel dx="762" dy="567" grid="1" gridSize="10" guides="1" tooltips="1" connect="1" arrows="1" fold="1" page="1" pageScale="1" pageWidth="850" pageHeight="1100" math="0" shadow="0">
            <root>
                <mxCell id="0"/>
                <mxCell id="1" parent="0"/>
                <mxCell id="2" value="" style="endArrow=none;html=1;" parent="1" edge="1">
                    <mxGeometry width="50" height="50" relative="1" as="geometry">
                        <mxPoint x="558.82" y="160" as="sourcePoint"/>
                        <mxPoint x="598.82" y="120" as="targetPoint"/>
                    </mxGeometry>
                </mxCell>
                <mxCell id="3" value="" style="endArrow=none;html=1;" parent="1" edge="1">
                    <mxGeometry width="50" height="50" relative="1" as="geometry">
                        <mxPoint x="558.82" y="200" as="sourcePoint"/>
                        <mxPoint x="558.82" y="160" as="targetPoint"/>
                    </mxGeometry>
                </mxCell>
                <mxCell id="4" value="" style="endArrow=none;html=1;" parent="1" edge="1">
                    <mxGeometry width="50" height="50" relative="1" as="geometry">
                        <mxPoint x="598.82" y="240" as="sourcePoint"/>
                        <mxPoint x="558.82" y="200" as="targetPoint"/>
                    </mxGeometry>
                </mxCell>
                <mxCell id="5" value="" style="endArrow=none;html=1;" parent="1" edge="1">
                    <mxGeometry width="50" height="50" relative="1" as="geometry">
                        <mxPoint x="598.82" y="240" as="sourcePoint"/>
                        <mxPoint x="638.82" y="240" as="targetPoint"/>
                    </mxGeometry>
                </mxCell>
                <mxCell id="6" value="" style="endArrow=none;html=1;" parent="1" edge="1">
                    <mxGeometry width="50" height="50" relative="1" as="geometry">
                        <mxPoint x="638.82" y="240" as="sourcePoint"/>
                        <mxPoint x="678.82" y="200" as="targetPoint"/>
                    </mxGeometry>
                </mxCell>
                <mxCell id="7" value="" style="endArrow=none;html=1;" parent="1" edge="1">
                    <mxGeometry width="50" height="50" relative="1" as="geometry">
                        <mxPoint x="678.82" y="200" as="sourcePoint"/>
                        <mxPoint x="678.82" y="160" as="targetPoint"/>
                    </mxGeometry>
                </mxCell>
                <mxCell id="8" value="" style="endArrow=none;html=1;" parent="1" edge="1">
                    <mxGeometry width="50" height="50" relative="1" as="geometry">
                        <mxPoint x="598.82" y="120" as="sourcePoint"/>
                        <mxPoint x="638.82" y="120" as="targetPoint"/>
                    </mxGeometry>
                </mxCell>
                <mxCell id="9" value="" style="endArrow=none;html=1;" parent="1" edge="1">
                    <mxGeometry width="50" height="50" relative="1" as="geometry">
                        <mxPoint x="678.82" y="160" as="sourcePoint"/>
                        <mxPoint x="638.82" y="120" as="targetPoint"/>
                    </mxGeometry>
                </mxCell>
                <mxCell id="10" value="" style="endArrow=none;html=1;" parent="1" edge="1">
                    <mxGeometry width="50" height="50" relative="1" as="geometry">
                        <mxPoint x="518.82" y="140" as="sourcePoint"/>
                        <mxPoint x="578.82" y="80" as="targetPoint"/>
                    </mxGeometry>
                </mxCell>
                <mxCell id="11" value="" style="endArrow=none;html=1;" parent="1" edge="1">
                    <mxGeometry width="50" height="50" relative="1" as="geometry">
                        <mxPoint x="518.82" y="140" as="sourcePoint"/>
                        <mxPoint x="518.82" y="220" as="targetPoint"/>
                    </mxGeometry>
                </mxCell>
                <mxCell id="12" value="" style="endArrow=none;html=1;" parent="1" edge="1">
                    <mxGeometry width="50" height="50" relative="1" as="geometry">
                        <mxPoint x="578.82" y="280" as="sourcePoint"/>
                        <mxPoint x="518.82" y="220" as="targetPoint"/>
                    </mxGeometry>
                </mxCell>
                <mxCell id="13" value="" style="endArrow=none;html=1;" parent="1" edge="1">
                    <mxGeometry width="50" height="50" relative="1" as="geometry">
                        <mxPoint x="578.82" y="280" as="sourcePoint"/>
                        <mxPoint x="658.82" y="280" as="targetPoint"/>
                    </mxGeometry>
                </mxCell>
                <mxCell id="14" value="" style="endArrow=none;html=1;" parent="1" edge="1">
                    <mxGeometry width="50" height="50" relative="1" as="geometry">
                        <mxPoint x="658.82" y="280" as="sourcePoint"/>
                        <mxPoint x="718.82" y="220" as="targetPoint"/>
                    </mxGeometry>
                </mxCell>
                <mxCell id="15" value="" style="endArrow=none;html=1;" parent="1" edge="1">
                    <mxGeometry width="50" height="50" relative="1" as="geometry">
                        <mxPoint x="578.82" y="80" as="sourcePoint"/>
                        <mxPoint x="658.82" y="80" as="targetPoint"/>
                    </mxGeometry>
                </mxCell>
                <mxCell id="16" value="" style="endArrow=none;html=1;" parent="1" edge="1">
                    <mxGeometry width="50" height="50" relative="1" as="geometry">
                        <mxPoint x="718.82" y="220" as="sourcePoint"/>
                        <mxPoint x="718.82" y="140" as="targetPoint"/>
                    </mxGeometry>
                </mxCell>
                <mxCell id="17" value="" style="endArrow=none;html=1;" parent="1" edge="1">
                    <mxGeometry width="50" height="50" relative="1" as="geometry">
                        <mxPoint x="658.82" y="80" as="sourcePoint"/>
                        <mxPoint x="718.82" y="140" as="targetPoint"/>
                    </mxGeometry>
                </mxCell>
                <mxCell id="38" style="edgeStyle=none;html=1;noEdgeStyle=1;orthogonal=1;" parent="1" source="19" target="26" edge="1">
                    <mxGeometry relative="1" as="geometry">
                        <Array as="points">
                            <mxPoint x="92" y="772.5"/>
                            <mxPoint x="168" y="22.5"/>
                        </Array>
                    </mxGeometry>
                </mxCell>
                <mxCell id="39" style="edgeStyle=none;html=1;noEdgeStyle=1;orthogonal=1;" parent="1" source="19" target="27" edge="1">
                    <mxGeometry relative="1" as="geometry">
                        <Array as="points">
                            <mxPoint x="94" y="777.5"/>
                            <mxPoint x="168" y="132.5"/>
                        </Array>
                    </mxGeometry>
                </mxCell>
                <mxCell id="40" style="edgeStyle=none;html=1;noEdgeStyle=1;orthogonal=1;" parent="1" source="19" target="28" edge="1">
                    <mxGeometry relative="1" as="geometry">
                        <Array as="points">
                            <mxPoint x="96" y="782.5"/>
                            <mxPoint x="168" y="242.5"/>
                        </Array>
                    </mxGeometry>
                </mxCell>
                <mxCell id="41" style="edgeStyle=none;html=1;noEdgeStyle=1;orthogonal=1;" parent="1" source="19" target="29" edge="1">
                    <mxGeometry relative="1" as="geometry">
                        <Array as="points">
                            <mxPoint x="98" y="787.5"/>
                            <mxPoint x="168" y="352.5"/>
                        </Array>
                    </mxGeometry>
                </mxCell>
                <mxCell id="42" style="edgeStyle=none;html=1;noEdgeStyle=1;orthogonal=1;" parent="1" source="19" target="22" edge="1">
                    <mxGeometry relative="1" as="geometry">
                        <Array as="points">
                            <mxPoint x="100" y="792.5"/>
                            <mxPoint x="168" y="462.5"/>
                        </Array>
                    </mxGeometry>
                </mxCell>
                <mxCell id="43" style="edgeStyle=none;html=1;noEdgeStyle=1;orthogonal=1;" parent="1" source="19" target="23" edge="1">
                    <mxGeometry relative="1" as="geometry">
                        <Array as="points">
                            <mxPoint x="102" y="797.5"/>
                            <mxPoint x="168" y="572.5"/>
                        </Array>
                    </mxGeometry>
                </mxCell>
                <mxCell id="44" style="edgeStyle=none;html=1;noEdgeStyle=1;orthogonal=1;" parent="1" source="19" target="24" edge="1">
                    <mxGeometry relative="1" as="geometry">
                        <Array as="points">
                            <mxPoint x="104" y="802.5"/>
                            <mxPoint x="168" y="682.5"/>
                        </Array>
                    </mxGeometry>
                </mxCell>
                <mxCell id="45" style="edgeStyle=none;html=1;noEdgeStyle=1;orthogonal=1;" parent="1" source="19" target="25" edge="1">
                    <mxGeometry relative="1" as="geometry">
                        <Array as="points">
                            <mxPoint x="106" y="807.5"/>
                            <mxPoint x="168" y="792.5"/>
                        </Array>
                    </mxGeometry>
                </mxCell>
                <mxCell id="46" style="edgeStyle=none;html=1;noEdgeStyle=1;orthogonal=1;" parent="1" source="19" target="34" edge="1">
                    <mxGeometry relative="1" as="geometry">
                        <Array as="points">
                            <mxPoint x="106" y="812.5"/>
                            <mxPoint x="168" y="902.5"/>
                        </Array>
                    </mxGeometry>
                </mxCell>
                <mxCell id="47" style="edgeStyle=none;html=1;noEdgeStyle=1;orthogonal=1;" parent="1" source="19" target="35" edge="1">
                    <mxGeometry relative="1" as="geometry">
                        <Array as="points">
                            <mxPoint x="104" y="817.5"/>
                            <mxPoint x="168" y="1012.5"/>
                        </Array>
                    </mxGeometry>
                </mxCell>
                <mxCell id="48" style="edgeStyle=none;html=1;noEdgeStyle=1;orthogonal=1;" parent="1" source="19" target="36" edge="1">
                    <mxGeometry relative="1" as="geometry">
                        <Array as="points">
                            <mxPoint x="102" y="822.5"/>
                            <mxPoint x="168" y="1122.5"/>
                        </Array>
                    </mxGeometry>
                </mxCell>
                <mxCell id="49" style="edgeStyle=none;html=1;noEdgeStyle=1;orthogonal=1;" parent="1" source="19" target="37" edge="1">
                    <mxGeometry relative="1" as="geometry">
                        <Array as="points">
                            <mxPoint x="100" y="827.5"/>
                            <mxPoint x="168" y="1232.5"/>
                        </Array>
                    </mxGeometry>
                </mxCell>
                <mxCell id="50" style="edgeStyle=none;html=1;noEdgeStyle=1;orthogonal=1;" parent="1" source="19" target="30" edge="1">
                    <mxGeometry relative="1" as="geometry">
                        <Array as="points">
                            <mxPoint x="98" y="832.5"/>
                            <mxPoint x="168" y="1342.5"/>
                        </Array>
                    </mxGeometry>
                </mxCell>
                <mxCell id="51" style="edgeStyle=none;html=1;noEdgeStyle=1;orthogonal=1;" edge="1" parent="1" source="19" target="31">
                    <mxGeometry relative="1" as="geometry">
                        <Array as="points">
                            <mxPoint x="96" y="837.5"/>
                            <mxPoint x="168" y="1452.5"/>
                        </Array>
                    </mxGeometry>
                </mxCell>
                <mxCell id="52" style="edgeStyle=none;html=1;noEdgeStyle=1;orthogonal=1;" edge="1" parent="1" source="19" target="32">
                    <mxGeometry relative="1" as="geometry">
                        <Array as="points">
                            <mxPoint x="94" y="842.5"/>
                            <mxPoint x="168" y="1562.5"/>
                        </Array>
                    </mxGeometry>
                </mxCell>
                <mxCell id="53" style="edgeStyle=none;html=1;noEdgeStyle=1;orthogonal=1;" edge="1" parent="1" source="19" target="33">
                    <mxGeometry relative="1" as="geometry">
                        <Array as="points">
                            <mxPoint x="92" y="847.5"/>
                            <mxPoint x="168" y="1672.5"/>
                        </Array>
                    </mxGeometry>
                </mxCell>
                <mxCell id="19" value="X" style="ellipse;whiteSpace=wrap;html=1;aspect=fixed;" parent="1" vertex="1">
                    <mxGeometry y="770" width="80" height="80" as="geometry"/>
                </mxCell>
                <mxCell id="54" style="edgeStyle=none;html=1;noEdgeStyle=1;orthogonal=1;" edge="1" parent="1" source="20" target="26">
                    <mxGeometry relative="1" as="geometry">
                        <Array as="points">
                            <mxPoint x="92" y="882.5"/>
                            <mxPoint x="168" y="57.5"/>
                        </Array>
                    </mxGeometry>
                </mxCell>
                <mxCell id="55" style="edgeStyle=none;html=1;noEdgeStyle=1;orthogonal=1;" edge="1" parent="1" source="20" target="27">
                    <mxGeometry relative="1" as="geometry">
                        <Array as="points">
                            <mxPoint x="94" y="887.5"/>
                            <mxPoint x="168" y="167.5"/>
                        </Array>
                    </mxGeometry>
                </mxCell>
                <mxCell id="56" style="edgeStyle=none;html=1;noEdgeStyle=1;orthogonal=1;" edge="1" parent="1" source="20" target="28">
                    <mxGeometry relative="1" as="geometry">
                        <Array as="points">
                            <mxPoint x="96" y="892.5"/>
                            <mxPoint x="168" y="277.5"/>
                        </Array>
                    </mxGeometry>
                </mxCell>
                <mxCell id="57" style="edgeStyle=none;html=1;noEdgeStyle=1;orthogonal=1;" edge="1" parent="1" source="20" target="29">
                    <mxGeometry relative="1" as="geometry">
                        <Array as="points">
                            <mxPoint x="98" y="897.5"/>
                            <mxPoint x="168" y="387.5"/>
                        </Array>
                    </mxGeometry>
                </mxCell>
                <mxCell id="58" style="edgeStyle=none;html=1;noEdgeStyle=1;orthogonal=1;" edge="1" parent="1" source="20" target="22">
                    <mxGeometry relative="1" as="geometry">
                        <Array as="points">
                            <mxPoint x="100" y="902.5"/>
                            <mxPoint x="168" y="497.5"/>
                        </Array>
                    </mxGeometry>
                </mxCell>
                <mxCell id="59" style="edgeStyle=none;html=1;noEdgeStyle=1;orthogonal=1;" edge="1" parent="1" source="20" target="23">
                    <mxGeometry relative="1" as="geometry">
                        <Array as="points">
                            <mxPoint x="102" y="907.5"/>
                            <mxPoint x="168" y="607.5"/>
                        </Array>
                    </mxGeometry>
                </mxCell>
                <mxCell id="60" style="edgeStyle=none;html=1;noEdgeStyle=1;orthogonal=1;" edge="1" parent="1" source="20" target="24">
                    <mxGeometry relative="1" as="geometry">
                        <Array as="points">
                            <mxPoint x="104" y="912.5"/>
                            <mxPoint x="168" y="717.5"/>
                        </Array>
                    </mxGeometry>
                </mxCell>
                <mxCell id="61" style="edgeStyle=none;html=1;noEdgeStyle=1;orthogonal=1;" edge="1" parent="1" source="20" target="25">
                    <mxGeometry relative="1" as="geometry">
                        <Array as="points">
                            <mxPoint x="106" y="917.5"/>
                            <mxPoint x="168" y="827.5"/>
                        </Array>
                    </mxGeometry>
                </mxCell>
                <mxCell id="62" style="edgeStyle=none;html=1;noEdgeStyle=1;orthogonal=1;" edge="1" parent="1" source="20" target="34">
                    <mxGeometry relative="1" as="geometry">
                        <Array as="points">
                            <mxPoint x="106" y="922.5"/>
                            <mxPoint x="168" y="937.5"/>
                        </Array>
                    </mxGeometry>
                </mxCell>
                <mxCell id="63" style="edgeStyle=none;html=1;noEdgeStyle=1;orthogonal=1;" edge="1" parent="1" source="20" target="35">
                    <mxGeometry relative="1" as="geometry">
                        <Array as="points">
                            <mxPoint x="104" y="927.5"/>
                            <mxPoint x="168" y="1047.5"/>
                        </Array>
                    </mxGeometry>
                </mxCell>
                <mxCell id="64" style="edgeStyle=none;html=1;noEdgeStyle=1;orthogonal=1;" edge="1" parent="1" source="20" target="36">
                    <mxGeometry relative="1" as="geometry">
                        <Array as="points">
                            <mxPoint x="102" y="932.5"/>
                            <mxPoint x="168" y="1157.5"/>
                        </Array>
                    </mxGeometry>
                </mxCell>
                <mxCell id="65" style="edgeStyle=none;html=1;noEdgeStyle=1;orthogonal=1;" edge="1" parent="1" source="20" target="37">
                    <mxGeometry relative="1" as="geometry">
                        <Array as="points">
                            <mxPoint x="100" y="937.5"/>
                            <mxPoint x="168" y="1267.5"/>
                        </Array>
                    </mxGeometry>
                </mxCell>
                <mxCell id="66" style="edgeStyle=none;html=1;noEdgeStyle=1;orthogonal=1;" edge="1" parent="1" source="20" target="30">
                    <mxGeometry relative="1" as="geometry">
                        <Array as="points">
                            <mxPoint x="98" y="942.5"/>
                            <mxPoint x="168" y="1377.5"/>
                        </Array>
                    </mxGeometry>
                </mxCell>
                <mxCell id="67" style="edgeStyle=none;html=1;noEdgeStyle=1;orthogonal=1;" edge="1" parent="1" source="20" target="31">
                    <mxGeometry relative="1" as="geometry">
                        <Array as="points">
                            <mxPoint x="96" y="947.5"/>
                            <mxPoint x="168" y="1487.5"/>
                        </Array>
                    </mxGeometry>
                </mxCell>
                <mxCell id="68" style="edgeStyle=none;html=1;noEdgeStyle=1;orthogonal=1;" edge="1" parent="1" source="20" target="32">
                    <mxGeometry relative="1" as="geometry">
                        <Array as="points">
                            <mxPoint x="94" y="952.5"/>
                            <mxPoint x="168" y="1597.5"/>
                        </Array>
                    </mxGeometry>
                </mxCell>
                <mxCell id="69" style="edgeStyle=none;html=1;noEdgeStyle=1;orthogonal=1;" edge="1" parent="1" source="20" target="33">
                    <mxGeometry relative="1" as="geometry">
                        <Array as="points">
                            <mxPoint x="92" y="957.5"/>
                            <mxPoint x="168" y="1707.5"/>
                        </Array>
                    </mxGeometry>
                </mxCell>
                <mxCell id="20" value="Y" style="ellipse;whiteSpace=wrap;html=1;aspect=fixed;" parent="1" vertex="1">
                    <mxGeometry y="880" width="80" height="80" as="geometry"/>
                </mxCell>
                <mxCell id="76" style="edgeStyle=none;html=1;noEdgeStyle=1;orthogonal=1;" edge="1" parent="1" source="22" target="70">
                    <mxGeometry relative="1" as="geometry">
                        <Array as="points">
                            <mxPoint x="272" y="480"/>
                            <mxPoint x="342" y="478.2638888888889"/>
                        </Array>
                    </mxGeometry>
                </mxCell>
                <mxCell id="22" value="L5" style="ellipse;whiteSpace=wrap;html=1;aspect=fixed;" parent="1" vertex="1">
                    <mxGeometry x="180" y="440" width="80" height="80" as="geometry"/>
                </mxCell>
                <mxCell id="77" style="edgeStyle=none;html=1;noEdgeStyle=1;orthogonal=1;" edge="1" parent="1" source="23" target="70">
                    <mxGeometry relative="1" as="geometry">
                        <Array as="points">
                            <mxPoint x="272" y="590"/>
                            <mxPoint x="344" y="487.0138888888889"/>
                        </Array>
                    </mxGeometry>
                </mxCell>
                <mxCell id="23" value="L6" style="ellipse;whiteSpace=wrap;html=1;aspect=fixed;" parent="1" vertex="1">
                    <mxGeometry x="180" y="550" width="80" height="80" as="geometry"/>
                </mxCell>
                <mxCell id="78" style="edgeStyle=none;html=1;noEdgeStyle=1;orthogonal=1;" edge="1" parent="1" source="24" target="70">
                    <mxGeometry relative="1" as="geometry">
                        <Array as="points">
                            <mxPoint x="272" y="700"/>
                            <mxPoint x="346" y="495.7638888888889"/>
                        </Array>
                    </mxGeometry>
                </mxCell>
                <mxCell id="24" value="L7" style="ellipse;whiteSpace=wrap;html=1;aspect=fixed;" parent="1" vertex="1">
                    <mxGeometry x="180" y="660" width="80" height="80" as="geometry"/>
                </mxCell>
                <mxCell id="79" style="edgeStyle=none;html=1;noEdgeStyle=1;orthogonal=1;" edge="1" parent="1" source="25" target="70">
                    <mxGeometry relative="1" as="geometry">
                        <Array as="points">
                            <mxPoint x="272" y="810"/>
                            <mxPoint x="348" y="504.5138888888889"/>
                        </Array>
                    </mxGeometry>
                </mxCell>
                <mxCell id="25" value="L8" style="ellipse;whiteSpace=wrap;html=1;aspect=fixed;" parent="1" vertex="1">
                    <mxGeometry x="180" y="770" width="80" height="80" as="geometry"/>
                </mxCell>
                <mxCell id="72" style="edgeStyle=none;html=1;noEdgeStyle=1;orthogonal=1;" edge="1" parent="1" source="26" target="70">
                    <mxGeometry relative="1" as="geometry">
                        <Array as="points">
                            <mxPoint x="272" y="40"/>
                            <mxPoint x="348" y="443.2638888888889"/>
                        </Array>
                    </mxGeometry>
                </mxCell>
                <mxCell id="26" value="L1" style="ellipse;whiteSpace=wrap;html=1;aspect=fixed;" parent="1" vertex="1">
                    <mxGeometry x="180" width="80" height="80" as="geometry"/>
                </mxCell>
                <mxCell id="73" style="edgeStyle=none;html=1;noEdgeStyle=1;orthogonal=1;" edge="1" parent="1" source="27" target="70">
                    <mxGeometry relative="1" as="geometry">
                        <Array as="points">
                            <mxPoint x="272" y="150"/>
                            <mxPoint x="346" y="452.0138888888889"/>
                        </Array>
                    </mxGeometry>
                </mxCell>
                <mxCell id="27" value="L2" style="ellipse;whiteSpace=wrap;html=1;aspect=fixed;" parent="1" vertex="1">
                    <mxGeometry x="180" y="110" width="80" height="80" as="geometry"/>
                </mxCell>
                <mxCell id="74" style="edgeStyle=none;html=1;noEdgeStyle=1;orthogonal=1;" edge="1" parent="1" source="28" target="70">
                    <mxGeometry relative="1" as="geometry">
                        <Array as="points">
                            <mxPoint x="272" y="260"/>
                            <mxPoint x="344" y="460.7638888888889"/>
                        </Array>
                    </mxGeometry>
                </mxCell>
                <mxCell id="28" value="L3" style="ellipse;whiteSpace=wrap;html=1;aspect=fixed;" parent="1" vertex="1">
                    <mxGeometry x="180" y="220" width="80" height="80" as="geometry"/>
                </mxCell>
                <mxCell id="75" style="edgeStyle=none;html=1;noEdgeStyle=1;orthogonal=1;" edge="1" parent="1" source="29" target="70">
                    <mxGeometry relative="1" as="geometry">
                        <Array as="points">
                            <mxPoint x="272" y="370"/>
                            <mxPoint x="342" y="469.5138888888889"/>
                        </Array>
                    </mxGeometry>
                </mxCell>
                <mxCell id="29" value="L4" style="ellipse;whiteSpace=wrap;html=1;aspect=fixed;" parent="1" vertex="1">
                    <mxGeometry x="180" y="330" width="80" height="80" as="geometry"/>
                </mxCell>
                <mxCell id="84" style="edgeStyle=none;html=1;noEdgeStyle=1;orthogonal=1;" edge="1" parent="1" source="30" target="71">
                    <mxGeometry relative="1" as="geometry">
                        <Array as="points">
                            <mxPoint x="272" y="1360"/>
                            <mxPoint x="342" y="1260.486111111111"/>
                        </Array>
                    </mxGeometry>
                </mxCell>
                <mxCell id="30" value="L13" style="ellipse;whiteSpace=wrap;html=1;aspect=fixed;" parent="1" vertex="1">
                    <mxGeometry x="180" y="1320" width="80" height="80" as="geometry"/>
                </mxCell>
                <mxCell id="85" style="edgeStyle=none;html=1;noEdgeStyle=1;orthogonal=1;" edge="1" parent="1" source="31" target="71">
                    <mxGeometry relative="1" as="geometry">
                        <Array as="points">
                            <mxPoint x="272" y="1470"/>
                            <mxPoint x="344" y="1269.236111111111"/>
                        </Array>
                    </mxGeometry>
                </mxCell>
                <mxCell id="31" value="L14" style="ellipse;whiteSpace=wrap;html=1;aspect=fixed;" parent="1" vertex="1">
                    <mxGeometry x="180" y="1430" width="80" height="80" as="geometry"/>
                </mxCell>
                <mxCell id="86" style="edgeStyle=none;html=1;noEdgeStyle=1;orthogonal=1;" edge="1" parent="1" source="32" target="71">
                    <mxGeometry relative="1" as="geometry">
                        <Array as="points">
                            <mxPoint x="272" y="1580"/>
                            <mxPoint x="346" y="1277.986111111111"/>
                        </Array>
                    </mxGeometry>
                </mxCell>
                <mxCell id="32" value="L15" style="ellipse;whiteSpace=wrap;html=1;aspect=fixed;" parent="1" vertex="1">
                    <mxGeometry x="180" y="1540" width="80" height="80" as="geometry"/>
                </mxCell>
                <mxCell id="87" style="edgeStyle=none;html=1;noEdgeStyle=1;orthogonal=1;" edge="1" parent="1" source="33" target="71">
                    <mxGeometry relative="1" as="geometry">
                        <Array as="points">
                            <mxPoint x="272" y="1690"/>
                            <mxPoint x="348" y="1286.736111111111"/>
                        </Array>
                    </mxGeometry>
                </mxCell>
                <mxCell id="33" value="L16" style="ellipse;whiteSpace=wrap;html=1;aspect=fixed;" parent="1" vertex="1">
                    <mxGeometry x="180" y="1650" width="80" height="80" as="geometry"/>
                </mxCell>
                <mxCell id="80" style="edgeStyle=none;html=1;noEdgeStyle=1;orthogonal=1;" edge="1" parent="1" source="34" target="71">
                    <mxGeometry relative="1" as="geometry">
                        <Array as="points">
                            <mxPoint x="272" y="920"/>
                            <mxPoint x="348" y="1225.486111111111"/>
                        </Array>
                    </mxGeometry>
                </mxCell>
                <mxCell id="34" value="L9" style="ellipse;whiteSpace=wrap;html=1;aspect=fixed;" parent="1" vertex="1">
                    <mxGeometry x="180" y="880" width="80" height="80" as="geometry"/>
                </mxCell>
                <mxCell id="81" style="edgeStyle=none;html=1;noEdgeStyle=1;orthogonal=1;" edge="1" parent="1" source="35" target="71">
                    <mxGeometry relative="1" as="geometry">
                        <Array as="points">
                            <mxPoint x="272" y="1030"/>
                            <mxPoint x="346" y="1234.236111111111"/>
                        </Array>
                    </mxGeometry>
                </mxCell>
                <mxCell id="35" value="L10" style="ellipse;whiteSpace=wrap;html=1;aspect=fixed;" parent="1" vertex="1">
                    <mxGeometry x="180" y="990" width="80" height="80" as="geometry"/>
                </mxCell>
                <mxCell id="82" style="edgeStyle=none;html=1;noEdgeStyle=1;orthogonal=1;" edge="1" parent="1" source="36" target="71">
                    <mxGeometry relative="1" as="geometry">
                        <Array as="points">
                            <mxPoint x="272" y="1140"/>
                            <mxPoint x="344" y="1242.986111111111"/>
                        </Array>
                    </mxGeometry>
                </mxCell>
                <mxCell id="36" value="L11" style="ellipse;whiteSpace=wrap;html=1;aspect=fixed;" parent="1" vertex="1">
                    <mxGeometry x="180" y="1100" width="80" height="80" as="geometry"/>
                </mxCell>
                <mxCell id="83" style="edgeStyle=none;html=1;noEdgeStyle=1;orthogonal=1;" edge="1" parent="1" source="37" target="71">
                    <mxGeometry relative="1" as="geometry">
                        <Array as="points">
                            <mxPoint x="272" y="1250"/>
                            <mxPoint x="342" y="1251.736111111111"/>
                        </Array>
                    </mxGeometry>
                </mxCell>
                <mxCell id="37" value="L12" style="ellipse;whiteSpace=wrap;html=1;aspect=fixed;" parent="1" vertex="1">
                    <mxGeometry x="180" y="1210" width="80" height="80" as="geometry"/>
                </mxCell>
                <mxCell id="89" style="edgeStyle=none;html=1;noEdgeStyle=1;orthogonal=1;" edge="1" parent="1" source="70" target="88">
                    <mxGeometry relative="1" as="geometry">
                        <Array as="points">
                            <mxPoint x="452" y="473.8888888888889"/>
                            <mxPoint x="528" y="847.5"/>
                        </Array>
                    </mxGeometry>
                </mxCell>
                <mxCell id="70" value="AND&lt;br&gt;A" style="ellipse;whiteSpace=wrap;html=1;aspect=fixed;" vertex="1" parent="1">
                    <mxGeometry x="360" y="433.8888888888889" width="80" height="80" as="geometry"/>
                </mxCell>
                <mxCell id="90" style="edgeStyle=none;html=1;noEdgeStyle=1;orthogonal=1;" edge="1" parent="1" source="71" target="88">
                    <mxGeometry relative="1" as="geometry">
                        <Array as="points">
                            <mxPoint x="452" y="1256.111111111111"/>
                            <mxPoint x="528" y="882.5"/>
                        </Array>
                    </mxGeometry>
                </mxCell>
                <mxCell id="71" value="AND&lt;br&gt;B" style="ellipse;whiteSpace=wrap;html=1;aspect=fixed;" vertex="1" parent="1">
                    <mxGeometry x="360" y="1216.111111111111" width="80" height="80" as="geometry"/>
                </mxCell>
                <mxCell id="92" style="edgeStyle=none;html=1;noEdgeStyle=1;orthogonal=1;" edge="1" parent="1" source="88" target="91">
                    <mxGeometry relative="1" as="geometry">
                        <Array as="points">
                            <mxPoint x="632" y="865"/>
                            <mxPoint x="708" y="865"/>
                        </Array>
                    </mxGeometry>
                </mxCell>
                <mxCell id="88" value="A&lt;br&gt;AND&lt;br&gt;Not B" style="ellipse;whiteSpace=wrap;html=1;aspect=fixed;" vertex="1" parent="1">
                    <mxGeometry x="540" y="825" width="80" height="80" as="geometry"/>
                </mxCell>
                <mxCell id="91" value="Inside&lt;br&gt;Shape" style="ellipse;whiteSpace=wrap;html=1;aspect=fixed;" vertex="1" parent="1">
                    <mxGeometry x="720" y="825" width="80" height="80" as="geometry"/>
                </mxCell>
                <mxCell id="93" value="L1" style="text;html=1;align=center;verticalAlign=middle;resizable=0;points=[];autosize=1;strokeColor=none;" vertex="1" parent="1">
                    <mxGeometry x="600" y="60" width="30" height="20" as="geometry"/>
                </mxCell>
                <mxCell id="94" value="L2" style="text;html=1;align=center;verticalAlign=middle;resizable=0;points=[];autosize=1;strokeColor=none;" vertex="1" parent="1">
                    <mxGeometry x="690" y="90" width="30" height="20" as="geometry"/>
                </mxCell>
                <mxCell id="95" value="L3" style="text;html=1;align=center;verticalAlign=middle;resizable=0;points=[];autosize=1;strokeColor=none;" vertex="1" parent="1">
                    <mxGeometry x="720" y="170" width="30" height="20" as="geometry"/>
                </mxCell>
                <mxCell id="96" value="L4" style="text;html=1;align=center;verticalAlign=middle;resizable=0;points=[];autosize=1;strokeColor=none;" vertex="1" parent="1">
                    <mxGeometry x="690" y="250" width="30" height="20" as="geometry"/>
                </mxCell>
                <mxCell id="97" value="L5" style="text;html=1;align=center;verticalAlign=middle;resizable=0;points=[];autosize=1;strokeColor=none;" vertex="1" parent="1">
                    <mxGeometry x="600" y="280" width="30" height="20" as="geometry"/>
                </mxCell>
                <mxCell id="98" value="L6" style="text;html=1;align=center;verticalAlign=middle;resizable=0;points=[];autosize=1;strokeColor=none;" vertex="1" parent="1">
                    <mxGeometry x="520" y="250" width="30" height="20" as="geometry"/>
                </mxCell>
                <mxCell id="99" value="L7" style="text;html=1;align=center;verticalAlign=middle;resizable=0;points=[];autosize=1;strokeColor=none;" vertex="1" parent="1">
                    <mxGeometry x="490" y="170" width="30" height="20" as="geometry"/>
                </mxCell>
                <mxCell id="100" value="L8" style="text;html=1;align=center;verticalAlign=middle;resizable=0;points=[];autosize=1;strokeColor=none;" vertex="1" parent="1">
                    <mxGeometry x="520" y="90" width="30" height="20" as="geometry"/>
                </mxCell>
                <mxCell id="101" value="L9" style="text;html=1;align=center;verticalAlign=middle;resizable=0;points=[];autosize=1;strokeColor=none;" vertex="1" parent="1">
                    <mxGeometry x="600" y="120" width="30" height="20" as="geometry"/>
                </mxCell>
                <mxCell id="102" value="L10" style="text;html=1;align=center;verticalAlign=middle;resizable=0;points=[];autosize=1;strokeColor=none;" vertex="1" parent="1">
                    <mxGeometry x="630" y="140" width="40" height="20" as="geometry"/>
                </mxCell>
                <mxCell id="103" value="L11" style="text;html=1;align=center;verticalAlign=middle;resizable=0;points=[];autosize=1;strokeColor=none;" vertex="1" parent="1">
                    <mxGeometry x="650" y="170" width="30" height="20" as="geometry"/>
                </mxCell>
                <mxCell id="104" value="L12" style="text;html=1;align=center;verticalAlign=middle;resizable=0;points=[];autosize=1;strokeColor=none;" vertex="1" parent="1">
                    <mxGeometry x="630" y="200" width="40" height="20" as="geometry"/>
                </mxCell>
                <mxCell id="105" value="L13" style="text;html=1;align=center;verticalAlign=middle;resizable=0;points=[];autosize=1;strokeColor=none;" vertex="1" parent="1">
                    <mxGeometry x="600" y="220" width="40" height="20" as="geometry"/>
                </mxCell>
                <mxCell id="106" value="L14" style="text;html=1;align=center;verticalAlign=middle;resizable=0;points=[];autosize=1;strokeColor=none;" vertex="1" parent="1">
                    <mxGeometry x="570" y="200" width="40" height="20" as="geometry"/>
                </mxCell>
                <mxCell id="107" value="L15" style="text;html=1;align=center;verticalAlign=middle;resizable=0;points=[];autosize=1;strokeColor=none;" vertex="1" parent="1">
                    <mxGeometry x="550" y="170" width="40" height="20" as="geometry"/>
                </mxCell>
                <mxCell id="108" value="L16" style="text;html=1;align=center;verticalAlign=middle;resizable=0;points=[];autosize=1;strokeColor=none;" vertex="1" parent="1">
                    <mxGeometry x="570" y="140" width="40" height="20" as="geometry"/>
                </mxCell>
            </root>
        </mxGraphModel>
    </diagram>
</mxfile>
